<?xml version="1.0" encoding="iso-8859-1"?>
<!-- Generator: Adobe Illustrator 26.5.0, SVG Export Plug-In . SVG Version: 6.00 Build 0)  -->
<svg version="1.1" id="&#xB808;&#xC774;&#xC5B4;_1" xmlns="http://www.w3.org/2000/svg" xmlns:xlink="http://www.w3.org/1999/xlink"
	 x="0px" y="0px" viewBox="0 0 200 100" style="enable-background:new 0 0 200 100;" xml:space="preserve">
<g>
	<g>
		<rect x="44" y="35" style="fill:#304AE2;" width="10" height="20"/>
		<rect x="44" y="35" style="fill:#304AE2;" width="10" height="20"/>
		<polygon style="fill:#304AE2;" points="74,55 74,45 64,45 64,55 54,55 54,65 84,65 84,55 		"/>
	</g>
	<rect x="122" y="35" width="4" height="30"/>
	<polygon points="146,62 146,54 142,54 142,62 132,62 132,65 142,65 146,65 156,65 156,62 	"/>
	<polygon points="151,39 151,36 141,36 141,36 137,36 137,36 137,39 137,48 137,51 137,51 151,51 151,48 141,48 141,39 	"/>
	<polygon points="111.5,37 112,37 119.5,50 116.5,52 111.75,43.643 107,52 104,50 	"/>
</g>
</svg>
