<?xml version="1.0" encoding="iso-8859-1"?>
<!-- Generator: Adobe Illustrator 26.5.0, SVG Export Plug-In . SVG Version: 6.00 Build 0)  -->
<svg version="1.1" id="&#xB808;&#xC774;&#xC5B4;_1" xmlns="http://www.w3.org/2000/svg" xmlns:xlink="http://www.w3.org/1999/xlink"
	 x="0px" y="0px" viewBox="0 0 120 40" style="enable-background:new 0 0 120 40;" xml:space="preserve">
<g>
	<g>
		<rect x="4" y="5" style="fill:#304AE2;" width="10" height="20"/>
		<rect x="4" y="5" style="fill:#304AE2;" width="10" height="20"/>
		<polygon style="fill:#304AE2;" points="34,25 34,15 24,15 24,25 14,25 14,35 44,35 44,25 		"/>
	</g>
	<rect x="82" y="5" width="4" height="30"/>
	<polygon points="106,32 106,24 102,24 102,32 92,32 92,35 102,35 106,35 116,35 116,32 	"/>
	<polygon points="111,9 111,6 101,6 101,6 97,6 97,6 97,9 97,18 97,21 97,21 111,21 111,18 101,18 101,9 	"/>
	<polygon points="71.5,7 72,7 79.5,20 76.5,22 71.75,13.643 67,22 64,20 	"/>
</g>
</svg>
